<svg width="512" height="512" viewBox="0 0 512 512" fill="none" xmlns="http://www.w3.org/2000/svg">
<path d="M486.761 252.394V468.732C486.761 492.627 467.389 512 443.493 512H68.507C44.612 512 25.239 492.628 25.239 468.732V252.394C25.239 124.95 128.554 21.634 256 21.634C383.446 21.634 486.761 124.95 486.761 252.394Z" fill="#FF4F19"/>
<path d="M256 21.634V512H443.493C467.388 512 486.761 492.628 486.761 468.732V252.394C486.761 124.95 383.446 21.634 256 21.634Z" fill="#FC0023"/>
<path d="M486.761 382.197C486.761 406.092 467.389 425.465 443.493 425.465C419.598 425.465 400.225 406.093 400.225 382.197V252.394C400.225 172.74 335.652 108.169 256 108.169C176.348 108.169 111.775 172.74 111.775 252.394V382.197C111.775 406.092 92.403 425.465 68.507 425.465C44.611 425.465 25.239 406.093 25.239 382.197V252.394C25.239 124.95 128.554 21.634 256 21.634C383.446 21.634 486.761 124.95 486.761 252.394V382.197Z" fill="#AEADB3"/>
<path d="M256 21.634V108.169C335.653 108.169 400.225 172.74 400.225 252.394V382.197C400.225 406.092 419.597 425.465 443.493 425.465C467.388 425.465 486.761 406.093 486.761 382.197V252.394C486.761 124.95 383.446 21.634 256 21.634Z" fill="#828186"/>
<path d="M256 0C116.83 0 3.60602 113.224 3.60602 252.394V382.197C3.60602 417.985 32.721 447.098 68.507 447.098C104.293 447.098 133.408 417.985 133.408 382.197V252.394C133.408 184.797 188.403 129.802 256 129.802C323.597 129.802 378.592 184.797 378.592 252.394V382.197C378.592 417.985 407.707 447.098 443.493 447.098C479.279 447.098 508.394 417.985 508.394 382.197V252.394C508.394 113.224 395.17 0 256 0ZM421.859 274.028H465.127V317.296H421.859V274.028ZM420.449 230.761C418.534 216.129 414.703 202.096 409.221 188.913L446.942 167.134C455.81 186.917 461.696 208.318 464.013 230.76H420.45V230.761H420.449ZM425.243 129.702L387.528 151.477C378.697 139.995 368.401 129.699 356.919 120.868L378.693 83.153C396.542 96.126 412.267 111.853 425.243 129.702ZM234.366 87.947C219.734 89.861 205.7 93.691 192.518 99.175L170.739 61.454C190.522 52.586 211.921 46.698 234.365 44.382L234.366 87.947ZM277.632 44.381C300.075 46.697 321.475 52.583 341.258 61.452L319.48 99.173C306.298 93.691 292.263 89.859 277.633 87.946L277.632 44.381ZM133.306 83.152L155.081 120.867C143.599 129.698 133.303 139.994 124.472 151.476L86.756 129.704C99.732 111.854 115.457 96.128 133.306 83.152ZM46.873 274.03L90.141 274.029V317.297H46.873V274.03ZM91.551 230.761L47.986 230.762C50.302 208.318 56.188 186.919 65.057 167.136L102.779 188.914C97.297 202.096 93.465 216.129 91.551 230.761ZM68.507 403.831C56.578 403.831 46.873 394.128 46.873 382.197V360.563H90.141V382.197C90.141 394.128 80.436 403.831 68.507 403.831ZM443.493 403.831C431.564 403.831 421.859 394.128 421.859 382.197V360.563H465.127V382.197C465.127 394.128 455.422 403.831 443.493 403.831Z" fill="#792DB5"/>
<path d="M256 0V129.803C323.597 129.803 378.592 184.798 378.592 252.395V382.198C378.592 417.986 407.707 447.099 443.493 447.099C479.279 447.099 508.394 417.986 508.394 382.198V252.394C508.394 113.224 395.17 0 256 0ZM319.481 99.174C306.299 93.692 292.264 89.86 277.634 87.947L277.633 44.382C300.076 46.698 321.476 52.584 341.259 61.453L319.481 99.174ZM387.528 151.476C378.697 139.994 368.401 129.698 356.919 120.867L378.693 83.152C396.542 96.127 412.267 111.851 425.243 129.701L387.528 151.476ZM409.221 188.912L446.942 167.133C455.81 186.916 461.696 208.317 464.013 230.759H420.45C418.533 216.129 414.703 202.096 409.221 188.912ZM465.127 382.197C465.127 394.127 455.422 403.831 443.493 403.831C431.564 403.831 421.859 394.128 421.859 382.197V360.563H465.127V382.197ZM465.127 317.296H421.859V274.028H465.127V317.296Z" fill="#792DB5"/>
</svg>
