<svg width="512" height="512" viewBox="0 0 512 512" fill="none" xmlns="http://www.w3.org/2000/svg">
<path d="M486.761 252.394V468.732C486.761 492.627 467.389 512 443.493 512H68.507C44.612 512 25.239 492.628 25.239 468.732V252.394C25.239 124.95 128.554 21.634 256 21.634C383.446 21.634 486.761 124.95 486.761 252.394Z" fill="#FF4F19"/>
<path d="M256 21.634V512H443.493C467.388 512 486.761 492.628 486.761 468.732V252.394C486.761 124.95 383.446 21.634 256 21.634Z" fill="#FC0023"/>
<path d="M486.761 382.197C486.761 406.092 467.389 425.465 443.493 425.465C419.598 425.465 400.225 406.093 400.225 382.197V252.394C400.225 172.74 335.652 108.169 256 108.169C176.348 108.169 111.775 172.74 111.775 252.394V382.197C111.775 406.092 92.403 425.465 68.507 425.465C44.611 425.465 25.239 406.093 25.239 382.197V252.394C25.239 124.95 128.554 21.634 256 21.634C383.446 21.634 486.761 124.95 486.761 252.394V382.197Z" fill="#AEADB3"/>
<path d="M256 21.634V108.169C335.653 108.169 400.225 172.74 400.225 252.394V382.197C400.225 406.092 419.597 425.465 443.493 425.465C467.388 425.465 486.761 406.093 486.761 382.197V252.394C486.761 124.95 383.446 21.634 256 21.634Z" fill="#828186"/>
<path d="M256 0C116.83 0 3.606 113.224 3.606 252.394V382.197C3.606 417.985 32.721 447.098 68.507 447.098C104.293 447.098 133.408 417.985 133.408 382.197V252.394C133.408 184.797 188.403 129.802 256 129.802C323.597 129.802 378.592 184.797 378.592 252.394V382.197C378.592 417.985 407.707 447.098 443.493 447.098C479.279 447.098 508.394 417.985 508.394 382.197V252.394C508.394 113.224 395.17 0 256 0ZM421.859 295.662C421.859 283.714 431.545 274.028 443.493 274.028V274.028C455.441 274.028 465.127 283.714 465.127 295.662V295.662C465.127 307.61 455.441 317.296 443.493 317.296V317.296C431.545 317.296 421.859 307.61 421.859 295.662V295.662ZM420.449 230.761C420.449 230.761 420.449 230.761 420.449 230.761C419.39 222.673 417.746 214.768 415.562 207.088C412.547 196.491 416.359 184.791 425.901 179.283V179.283C437.157 172.784 451.667 177.434 455.564 189.834C457.449 195.83 459.07 201.941 460.413 208.153C463.003 220.126 453.36 230.76 441.11 230.76H420.451C420.45 230.76 420.45 230.76 420.45 230.76V230.76C420.45 230.761 420.45 230.761 420.45 230.761H420.449ZM409.82 110.877C418.635 120.451 415.426 135.37 404.156 141.877V141.877C394.638 147.372 382.629 144.849 374.975 136.963C373.813 135.764 372.632 134.584 371.434 133.421C363.547 125.767 361.024 113.758 366.519 104.24V104.24C373.026 92.9693 387.944 89.76 397.518 98.5749C401.786 102.504 405.89 106.609 409.82 110.877ZM234.366 68.6951C234.366 79.7092 226.146 88.8591 215.466 91.5526C213.866 91.9561 212.275 92.3829 210.694 92.8326C200.097 95.8472 188.396 92.0356 182.887 82.4937V82.4937C176.388 71.2383 181.039 56.7288 193.437 52.8315C198.99 51.0863 204.641 49.5668 210.381 48.2841C223.072 45.4479 234.365 55.6911 234.366 68.6951V68.6951ZM277.633 68.6946C277.632 55.6906 288.926 45.447 301.617 48.2828C307.356 49.5652 313.007 51.0844 318.559 52.8294C330.959 56.7264 335.609 71.2362 329.111 82.4921V82.4921C323.602 92.034 311.902 95.8464 301.304 92.8317C299.723 92.382 298.132 91.9551 296.533 91.5516C285.853 88.8579 277.633 79.7084 277.633 68.6946V68.6946ZM114.482 98.5757C124.055 89.7604 138.974 92.9689 145.481 104.239V104.239C150.976 113.757 148.453 125.766 140.567 133.42C139.368 134.583 138.187 135.764 137.024 136.963C129.37 144.849 117.362 147.372 107.845 141.878V141.878C96.5739 135.371 93.3645 120.453 102.18 110.878C106.109 106.61 110.214 102.506 114.482 98.5757ZM46.873 295.663C46.873 283.715 56.5587 274.03 68.5065 274.029V274.029C80.4547 274.029 90.141 283.715 90.141 295.663V295.663C90.141 307.611 80.455 317.297 68.507 317.297V317.297C56.559 317.297 46.873 307.611 46.873 295.663V295.663ZM95.1571 211.862C92.4632 222.541 83.3138 230.761 72.3 230.761V230.761C59.2958 230.762 49.0519 219.468 51.8878 206.777C53.1702 201.037 54.6893 195.387 56.4343 189.835C60.3314 177.435 74.8414 172.785 86.0974 179.283V179.283C95.6397 184.792 99.4522 196.493 96.4373 207.09C95.9875 208.671 95.5606 210.262 95.1571 211.862ZM68.507 403.831C56.578 403.831 46.873 394.128 46.873 382.197V382.197C46.873 370.249 56.5589 360.563 68.507 360.563V360.563C80.4551 360.563 90.141 370.249 90.141 382.197V382.197C90.141 394.128 80.436 403.831 68.507 403.831ZM443.493 403.831C431.564 403.831 421.859 394.128 421.859 382.197V382.197C421.859 370.249 431.545 360.563 443.493 360.563V360.563C455.441 360.563 465.127 370.249 465.127 382.197V382.197C465.127 394.128 455.422 403.831 443.493 403.831Z" fill="#322FC2"/>
<path d="M320.202 8.27223C285.538 -0.850983 256 29.0574 256 64.9015V64.9015C256 100.746 286.999 128.455 317.905 146.611C354.185 167.923 378.592 207.363 378.592 252.395V382.198C378.592 417.986 407.707 447.099 443.493 447.099C479.279 447.099 508.394 417.986 508.394 382.198V252.394C508.394 135.401 428.38 36.744 320.202 8.27223ZM329.112 82.4931C323.603 92.035 311.903 95.8474 301.305 92.8327C299.724 92.383 298.133 91.9561 296.534 91.5526C285.854 88.8589 277.634 79.7094 277.634 68.6956V68.6956C277.633 55.6916 288.927 45.448 301.618 48.2838C307.357 49.5662 313.008 51.0854 318.56 52.8304C330.96 56.7274 335.61 71.2372 329.112 82.4931V82.4931ZM404.156 141.876C394.638 147.371 382.629 144.848 374.975 136.961C373.812 135.763 372.631 134.582 371.433 133.419C363.547 125.766 361.024 113.757 366.519 104.239V104.239C373.025 92.9689 387.944 89.7599 397.518 98.5748C401.786 102.504 405.89 106.609 409.82 110.876C418.635 120.45 415.426 135.369 404.156 141.876V141.876ZM415.561 207.087C412.547 196.49 416.359 184.791 425.901 179.282V179.282C437.157 172.783 451.667 177.434 455.564 189.833C457.309 195.384 458.828 201.034 460.11 206.773C462.946 219.464 452.702 230.759 439.698 230.759V230.759C428.685 230.759 419.536 222.541 416.843 211.863C416.439 210.262 416.012 208.67 415.561 207.087ZM465.127 382.197C465.127 394.127 455.422 403.831 443.493 403.831C431.564 403.831 421.859 394.128 421.859 382.197V382.197C421.859 370.249 431.545 360.563 443.493 360.563V360.563C455.441 360.563 465.127 370.249 465.127 382.197V382.197ZM465.127 295.662C465.127 307.61 455.441 317.296 443.493 317.296V317.296C431.545 317.296 421.859 307.61 421.859 295.662V295.662C421.859 283.714 431.545 274.028 443.493 274.028V274.028C455.441 274.028 465.127 283.714 465.127 295.662V295.662Z" fill="#322FC2"/>
</svg>
